<?xml version="1.0" encoding="utf-8"?>
<!-- Generator: Adobe Illustrator 24.3.0, SVG Export Plug-In . SVG Version: 6.00 Build 0)  -->
<svg version="1.1" id="Layer_1" xmlns="http://www.w3.org/2000/svg" xmlns:xlink="http://www.w3.org/1999/xlink" x="0px" y="0px"
	 viewBox="0 0 139.8 60.9" style="enable-background:new 0 0 139.8 60.9;" xml:space="preserve">
<style type="text/css">
	.st0{fill:#CF352C;}
	.st1{fill:#B6A14A;}
</style>
<g>
	<path class="st0" d="M75.6,45.3c-1.3-1.2-2.4-2.7-3.2-4.3c-0.9-1.5-1.6-3.1-2.4-4.7c0-0.1-0.1-0.2-0.1-0.3v0c0,0,0,0,0,0
		c0,0,0,0,0,0v0c0,0.1-0.1,0.2-0.1,0.3c-0.8,1.6-1.5,3.2-2.4,4.7c-0.9,1.5-1.9,3-3.2,4.3c-1.1,1.1-2.5,1.9-3.9,2.5
		c-0.4,0.8-0.8,1.6-1,2.4c-0.3,1-0.4,2-0.1,2.9c0.3,0.9,0.9,1.7,1.6,2.3c0.4,0.3,0.8,0.6,1.2,0.9c0.4,0.2,0.9,0.5,1.3,0.6
		c0.8,0,1.5,0,2.3,0.1c0.8,0,1.6,0.1,2.4,0.1c0.6,0,1.3,0.1,1.9,0.1v0c0,0,0,0,0,0c0,0,0,0,0,0v0c0.6-0.1,1.3-0.1,1.9-0.1
		c0.8,0,1.6-0.1,2.4-0.1c0.8,0,1.5,0,2.3-0.1c0.4-0.2,0.9-0.4,1.3-0.6c0.4-0.3,0.8-0.5,1.2-0.9c0.8-0.6,1.4-1.4,1.6-2.3
		c0.3-0.9,0.2-1.9-0.1-2.9c-0.2-0.8-0.6-1.6-1-2.4C78.1,47.2,76.8,46.4,75.6,45.3z M72.8,54.1h-2.9h0H67c0,0-4.7-1.5-1.7-5.5
		c1.9-1.3,3.5-2.5,4.7-3.4c1.2,0.9,2.8,2.1,4.7,3.4C77.5,52.6,72.8,54.1,72.8,54.1z"/>
	<path class="st0" d="M139.6,26.2c-1.3-4.2-2.2-5.1-4.2-1c-1.9,4-12.7,7.2-12.7,7.2c0.3-10.4-8.5-7.8-8.5-7.8
		c3.8,5.1-5.7,8.8-6.6,9.3c-0.9,0.4-22.8,14.7-27.6,6.5c-4.9-8.1,5.6-8.6,6.9-5.7c1.3,2.9-2.1,4.8-2.1,4.8c6.7,3.3,8.9-4.4,8.9-4.4
		c16.9,2.2,15.5-12.9,19.6-23.4c4-10.5,12.2-4.5,12.2-4.5c0.2-2.8-1.6-5.2-6-6.7c-12-4.2-16.8,16.5-16.8,16.5c-0.6-0.9-4-1.3-4-1.3
		c-9.5-0.4-6,9.5-6,9.5s-0.1-3.4,3.3-3.3c3.5,0.1,4.4,2.9,1.7,5.1c-2.7,2.2-12.2,0-16.6-1c-4.4-1-5.5,1.2-5.5,1.2l-5.7-4.6v0l0,0
		l0,0v0l-5.7,4.6c0,0-1.1-2.2-5.5-1.2c-4.4,1-13.9,3.3-16.6,1c-2.7-2.2-1.8-5.1,1.7-5.1c3.5-0.1,3.3,3.3,3.3,3.3s3.5-9.9-6-9.5
		c0,0-3.3,0.4-4,1.3c0,0-4.8-20.7-16.8-16.5c-4.4,1.5-6.2,4-6,6.7c0,0,8.1-6.1,12.2,4.5c4,10.5,2.6,25.6,19.6,23.4
		c0,0,2.2,7.7,8.9,4.4c0,0-3.3-1.9-2.1-4.8s11.8-2.4,6.9,5.7c-4.9,8.1-26.7-6.1-27.6-6.5c-0.9-0.4-10.4-4.2-6.6-9.3
		c0,0-8.8-2.6-8.5,7.8c0,0-10.7-3.2-12.7-7.2c-1.9-4-2.9-3.2-4.2,1c-1.3,4.2,5.7,9.9,5.7,9.9s-8.1,10.6,0.6,16.1
		c0,0-2.1-11.1,14.3-10c9.5,0.6,18.7,11.9,32.6,10c0,0,1.8,8,7.4,8.7c3.2,0,6.7,0,9.2,0c2.5,0,6,0,9.2,0c5.6-0.7,7.4-8.7,7.4-8.7
		c13.9,1.9,23.1-9.3,32.6-10c16.4-1.1,14.3,10,14.3,10c8.6-5.5,0.6-16.1,0.6-16.1S140.9,30.5,139.6,26.2z M74.9,32.5
		c0.3-0.7,0.8-1.4,1.4-1.9c0.6-0.5,1.4-0.8,2.1-1c0.8-0.2,1.6-0.3,2.3-0.3c3.1-0.1,6.2,0.4,9.3,0.9c0.8,0.1,1.5,0.3,2.3,0.4
		c0.7,0.1,1.5,0.2,2.2,0.2c0.4,0,0.7,0,1.1,0l0.6,0l0.6,0c0.4,0,0.7-0.1,1.1-0.1c0.4-0.1,0.7-0.1,1.1-0.2c1.4-0.4,2.7-1.1,3.7-2.1
		c0.5-0.5,0.9-1.1,1.2-1.7c0.2-0.3,0.3-0.6,0.4-1c0-0.1,0.1-0.3,0.1-0.4c0,0,0,0,0,0c-0.1-0.7-0.2-1.4-0.5-2
		c-0.3-0.6-0.6-1.2-1.1-1.6c-0.1-0.1-0.3-0.2-0.4-0.3l-0.4-0.3c-0.3-0.2-0.6-0.4-0.9-0.6c-0.1-0.1-0.3-0.2-0.4-0.3l-0.5-0.2
		c-0.2-0.1-0.3-0.2-0.5-0.2l-0.5-0.2l-0.2-0.1l-0.2,0l-0.5-0.1c-0.2,0-0.3,0-0.5,0l-0.3,0c-0.1,0-0.2,0-0.3,0c-0.7,0-1.4,0.1-2,0.3
		c-0.7,0.2-1.3,0.5-1.9,1c0.9-1.2,2.3-2.1,3.9-2.3c0.1,0,0.2,0,0.3,0l0.3,0c0.2,0,0.4,0,0.6,0l0.6,0.1l0.3,0l0.3,0.1l0.6,0.2
		c0.2,0,0.4,0.1,0.5,0.2l0.5,0.2c0.2,0.1,0.3,0.2,0.5,0.3c0.3,0.2,0.7,0.4,1,0.6l0.5,0.4c0.2,0.1,0.3,0.2,0.5,0.4
		c0.6,0.6,0.9,1.4,1.2,2.1c0,0,0,0.1,0,0.1c0.5-2,1-4.1,1.7-6.1c0.4-1.3,0.8-2.5,1.3-3.7c0.5-1.2,1-2.4,1.5-3.6l0.4-0.9l0.4-0.9
		c0.3-0.6,0.7-1.2,1.1-1.7c0.8-1.1,1.9-2,3.2-2.5c1.3-0.5,2.6-0.7,3.9-0.6c1.3,0.1,2.6,0.4,3.8,0.9c-1.2-0.4-2.5-0.6-3.8-0.6
		c-1.3,0-2.6,0.2-3.7,0.8c-1.1,0.5-2.1,1.4-2.8,2.4c-0.4,0.5-0.7,1.1-0.9,1.7L110.5,9l-0.4,0.9c-0.5,1.2-0.9,2.4-1.4,3.6
		c-0.4,1.2-0.8,2.5-1.2,3.7c-0.7,2.5-1.4,5-1.9,7.5c0,0.2-0.1,0.4-0.1,0.6c0,0.2-0.1,0.4-0.2,0.6c-0.1,0.4-0.3,0.8-0.4,1.2
		c-0.3,0.8-0.8,1.4-1.4,2c-1.2,1.2-2.7,2-4.3,2.4c-0.4,0.1-0.8,0.2-1.2,0.2c-0.4,0-0.8,0.1-1.2,0.1l-0.6,0l-0.6,0
		c-0.4,0-0.8,0-1.2,0c-0.8-0.1-1.6-0.2-2.3-0.3c-0.8-0.1-1.5-0.3-2.3-0.5c-0.5-0.1-1.1-0.2-1.6-0.3c0.6,0.3,1.1,0.7,1.5,1.3
		c0.4,0.4,0.6,1,0.8,1.6c0.1,0.6,0.1,1.2-0.1,1.7c-0.2,0.5-0.4,1-0.7,1.5c-0.3,0.4-0.7,0.8-1.1,1.1c0.5-0.9,0.8-1.8,0.9-2.7
		c0.1-0.9-0.1-1.7-0.7-2.3c-0.5-0.7-1.3-1.2-2.1-1.7c-0.5-0.3-1.1-0.6-1.7-0.9c-1.4-0.2-2.8-0.4-4.2-0.4c-0.8,0-1.5,0-2.2,0.2
		c-0.7,0.1-1.4,0.4-2,0.8c-0.6,0.4-1.1,1-1.5,1.7c-0.4,0.7-0.7,1.4-1,2.1C74.4,33.9,74.6,33.2,74.9,32.5z M58.9,29.9
		c-1.4,0-2.8,0.2-4.2,0.4c-0.6,0.3-1.1,0.6-1.7,0.9c-0.8,0.5-1.6,1-2.1,1.7c-0.5,0.7-0.8,1.5-0.7,2.3c0.1,0.9,0.4,1.8,0.9,2.7
		c-0.4-0.3-0.8-0.7-1.1-1.1c-0.3-0.4-0.6-0.9-0.7-1.5c-0.2-0.5-0.2-1.1-0.1-1.7c0.1-0.6,0.4-1.1,0.8-1.6c0.4-0.5,1-1,1.5-1.3
		c-0.5,0.1-1.1,0.2-1.6,0.3c-0.7,0.2-1.5,0.3-2.3,0.5c-0.8,0.1-1.6,0.2-2.3,0.3c-0.4,0-0.8,0.1-1.2,0l-0.6,0l-0.6,0
		c-0.4,0-0.8-0.1-1.2-0.1c-0.4-0.1-0.8-0.1-1.2-0.2c-1.6-0.4-3.1-1.2-4.3-2.4c-0.6-0.6-1.1-1.3-1.4-2c-0.2-0.4-0.3-0.8-0.4-1.2
		c-0.1-0.2-0.1-0.4-0.2-0.6c0-0.2-0.1-0.4-0.1-0.6c-0.5-2.5-1.2-5-1.9-7.5c-0.4-1.2-0.8-2.5-1.2-3.7c-0.4-1.2-0.9-2.4-1.4-3.6
		L29.3,9l-0.4-0.9c-0.3-0.6-0.6-1.1-0.9-1.7c-0.7-1-1.7-1.9-2.8-2.4c-1.1-0.5-2.4-0.8-3.7-0.8c-1.3,0-2.6,0.2-3.8,0.6
		c1.2-0.5,2.5-0.8,3.8-0.9c1.3-0.1,2.7,0.1,3.9,0.6C26.6,4.1,27.7,5,28.5,6c0.4,0.5,0.8,1.1,1.1,1.7l0.4,0.9l0.4,0.9
		c0.6,1.2,1,2.4,1.5,3.6c0.5,1.2,0.9,2.5,1.3,3.7c0.6,2,1.2,4,1.7,6.1c0,0,0-0.1,0-0.1c0.2-0.8,0.6-1.5,1.2-2.1
		c0.2-0.2,0.3-0.3,0.5-0.4L37,20c0.3-0.2,0.6-0.4,1-0.6c0.2-0.1,0.3-0.2,0.5-0.3l0.5-0.2c0.2-0.1,0.4-0.2,0.5-0.2l0.6-0.2l0.3-0.1
		l0.3,0l0.6-0.1c0.2,0,0.4,0,0.6,0l0.3,0c0.1,0,0.2,0,0.3,0c1.6,0.2,3,1.1,3.9,2.3c-0.6-0.4-1.3-0.7-1.9-1c-0.7-0.2-1.4-0.4-2-0.3
		c-0.1,0-0.2,0-0.3,0l-0.3,0c-0.2,0-0.3,0-0.5,0l-0.5,0.1l-0.2,0l-0.2,0.1L40,19.7c-0.2,0-0.3,0.1-0.5,0.2L39,20.1
		c-0.2,0.1-0.3,0.2-0.4,0.3c-0.3,0.2-0.6,0.3-0.9,0.6l-0.4,0.3c-0.1,0.1-0.3,0.2-0.4,0.3c-0.4,0.4-0.8,1-1.1,1.6
		c-0.3,0.6-0.4,1.3-0.5,2c0,0,0,0,0,0c0,0.1,0.1,0.3,0.1,0.4c0.1,0.3,0.2,0.7,0.4,1c0.3,0.6,0.7,1.2,1.2,1.7c1,1,2.3,1.7,3.7,2.1
		c0.3,0.1,0.7,0.2,1.1,0.2c0.4,0,0.7,0.1,1.1,0.1l0.6,0l0.6,0c0.4,0,0.7,0,1.1,0c0.7,0,1.5-0.1,2.2-0.2c0.7-0.1,1.5-0.3,2.3-0.4
		c3-0.5,6.1-1.1,9.3-0.9c0.8,0,1.6,0.1,2.3,0.3c0.8,0.2,1.5,0.5,2.1,1c0.6,0.5,1.1,1.2,1.4,1.9c0.3,0.7,0.6,1.4,0.8,2.2
		c-0.3-0.7-0.6-1.4-1-2.1c-0.4-0.7-0.9-1.2-1.5-1.7c-0.6-0.4-1.3-0.7-2-0.8C60.4,29.9,59.6,29.9,58.9,29.9z M134,41.7
		c0.1,0.2,0.2,0.4,0.3,0.6c0.2,0.4,0.4,0.8,0.5,1.2c0.3,0.8,0.4,1.7,0.3,2.5c0,0.8-0.2,1.7-0.5,2.4c0.1-0.4,0.2-0.8,0.2-1.2
		c0-0.2,0-0.4,0-0.6c0-0.2,0-0.4,0-0.6c0-0.4-0.1-0.8-0.2-1.2l-0.2-0.6c-0.1-0.2-0.1-0.4-0.2-0.6c-0.6-1.5-1.7-2.6-3-3.5
		c-1.3-0.9-2.8-1.6-4.3-2c-1.5-0.4-3.1-0.7-4.7-0.7c-3.2-0.1-6.4,0.5-9.6,1.5c-0.6,0.2-1.2,0.4-1.8,0.6l-1.3,0.7
		c-1.8,1-3.6,2-5.4,2.9c-1.8,0.9-3.7,1.8-5.6,2.6c-1.9,0.8-3.9,1.5-5.9,2c-1,0.3-2,0.5-3.1,0.6c-0.5,0.1-1,0.1-1.5,0.2
		c-0.5,0-1,0.1-1.6,0.1c-2.1,0.1-4.2-0.1-6.2-0.6l0,0l0,0c-0.1,0-0.3-0.1-0.4-0.2c0.5,0.6,1,1.3,1.3,2c0.5,1,0.7,2.2,0.4,3.4
		c-0.3,1.2-1,2.2-1.9,3c-0.4,0.4-0.9,0.7-1.4,1c-0.5,0.3-1,0.5-1.6,0.7l-0.1,0l-0.1,0c-0.8,0-1.6,0-2.4-0.1c-0.8,0-1.6-0.1-2.4-0.1
		c-0.6,0-1.3-0.1-1.9-0.1v0c0,0,0,0,0,0c0,0,0,0,0,0v0c-0.6,0.1-1.3,0.1-1.9,0.1c-0.8,0-1.6,0.1-2.4,0.1c-0.8,0-1.6,0-2.4,0.1
		l-0.1,0l-0.1,0c-0.6-0.2-1.1-0.4-1.6-0.7c-0.5-0.3-1-0.6-1.4-1c-0.9-0.8-1.6-1.8-1.9-3c-0.3-1.2,0-2.4,0.4-3.4
		c0.3-0.8,0.8-1.4,1.3-2c-0.1,0.1-0.3,0.1-0.4,0.2l0,0l0,0c-2,0.5-4.1,0.7-6.2,0.6c-0.5,0-1-0.1-1.6-0.1c-0.5-0.1-1-0.1-1.5-0.2
		c-1-0.2-2-0.4-3.1-0.6c-2-0.5-4-1.2-5.9-2c-1.9-0.8-3.8-1.7-5.6-2.6c-1.8-0.9-3.6-1.9-5.4-2.9l-1.3-0.7c-0.6-0.2-1.2-0.4-1.8-0.6
		c-3.1-1-6.3-1.6-9.6-1.5c-1.6,0-3.2,0.3-4.7,0.7c-1.5,0.4-3,1.1-4.3,2c-1.3,0.9-2.4,2.1-3,3.5c-0.1,0.2-0.2,0.4-0.2,0.6l-0.2,0.6
		c-0.1,0.4-0.2,0.8-0.2,1.2c0,0.2,0,0.4,0,0.6c0,0.2,0,0.4,0,0.6c0,0.4,0.1,0.8,0.2,1.2c-0.3-0.8-0.5-1.6-0.5-2.4
		c0-0.8,0.1-1.7,0.3-2.5C5,43,5.2,42.6,5.4,42.2c0.1-0.2,0.2-0.4,0.3-0.6l0.2-0.3L6,41.2l0.1-0.1c0.5-0.7,1.2-1.3,1.8-1.8l0.5-0.4
		c0.2-0.1,0.3-0.3,0.5-0.4l1.1-0.6c0.4-0.2,0.8-0.4,1.2-0.5c0.4-0.2,0.8-0.3,1.2-0.4c1-0.3,2-0.5,2.9-0.6l-0.7-0.2l-1.5-0.5
		l-0.8-0.2c-0.3-0.1-0.5-0.2-0.8-0.3l-1.5-0.6c-0.5-0.2-1-0.5-1.5-0.7l-0.4-0.2L8,33.3l-0.7-0.4c-0.2-0.2-0.5-0.3-0.7-0.5L6,31.9
		c-0.9-0.7-1.6-1.5-2.3-2.3l-0.5-0.7c-0.1-0.2-0.3-0.5-0.4-0.7c-0.2-0.5-0.5-1-0.6-1.5c0.2,0.5,0.5,0.9,0.8,1.3
		c0.2,0.2,0.3,0.4,0.5,0.6l0.5,0.6c0.8,0.7,1.6,1.4,2.4,1.9C7,31.5,7.4,31.8,7.9,32l0.7,0.4l0.3,0.2l0.4,0.2l1.4,0.7l1.5,0.6
		c0.2,0.1,0.5,0.2,0.7,0.3l0.7,0.2l1.5,0.5c1,0.3,2,0.6,3,0.9c0.4,0.1,0.7,0.2,1.1,0.3c1.1,0.1,2.3,0.2,3.4,0.4
		c0.8,0.2,1.5,0.3,2.3,0.5l0,0c-0.9-0.6-1.7-1.2-2.4-2c-0.7-0.8-1.3-1.7-1.7-2.7c-0.4-1-0.5-2.1-0.4-3.1c0.1-1,0.5-2,1-2.9
		c-0.5,0.9-0.7,1.9-0.8,2.9c0,1,0.2,2,0.6,2.9c0.4,0.9,1,1.7,1.7,2.4c0.7,0.7,1.5,1.3,2.4,1.8l0.6,0.4l0.7,0.3l1.4,0.7l2.7,1.4
		c0.3,0.2,0.6,0.3,1,0.5c0.1,0.1,0.3,0.1,0.4,0.2c0,0,0.1,0,0.1,0.1c1.3,0.7,2.6,1.4,4,2c0.9,0.4,1.8,0.9,2.7,1.3
		c0.9,0.4,1.8,0.8,2.8,1.2c0.9,0.4,1.9,0.7,2.8,1.1c1,0.3,1.9,0.6,2.9,0.9c1,0.2,2,0.5,2.9,0.6c0.5,0.1,1,0.1,1.5,0.2
		c0.5,0,1,0.1,1.5,0.1c2,0.1,4,0,5.9-0.4c1.6-0.5,3.1-1.3,4.4-2.4c1.3-1.1,2.3-2.5,3.2-4c0.9-1.5,1.7-3,2.6-4.5
		c0.2-0.3,0.3-0.5,0.5-0.8c0.2,0.3,0.3,0.5,0.5,0.8c0.9,1.5,1.7,3.1,2.6,4.5c0.9,1.5,2,2.8,3.2,4c1.3,1.1,2.8,1.9,4.4,2.4
		c1.9,0.4,3.9,0.6,5.9,0.4c0.5,0,1-0.1,1.5-0.1c0.5-0.1,1-0.1,1.5-0.2c1-0.2,2-0.4,2.9-0.6c1-0.3,1.9-0.6,2.9-0.9
		c1-0.3,1.9-0.7,2.8-1.1c0.9-0.4,1.9-0.8,2.8-1.2c0.9-0.4,1.8-0.9,2.7-1.3c1.3-0.7,2.6-1.3,4-2c0,0,0.1,0,0.1-0.1
		c0.1-0.1,0.3-0.1,0.4-0.2c0.3-0.2,0.6-0.3,1-0.5l2.7-1.4l1.4-0.7l0.7-0.3l0.6-0.4c0.9-0.5,1.7-1.1,2.4-1.8c0.7-0.7,1.3-1.5,1.7-2.4
		c0.4-0.9,0.6-1.9,0.6-2.9c-0.1-1-0.3-2-0.8-2.9c0.6,0.9,0.9,1.9,1,2.9c0.1,1,0,2.1-0.4,3.1c-0.4,1-1,1.9-1.7,2.7
		c-0.7,0.8-1.5,1.4-2.4,2l0,0c0.8-0.2,1.5-0.4,2.3-0.5c1.1-0.2,2.2-0.3,3.4-0.4c0.4-0.1,0.7-0.2,1.1-0.3c1-0.3,2-0.6,3-0.9l1.5-0.5
		l0.7-0.2c0.2-0.1,0.5-0.2,0.7-0.3l1.5-0.6l1.4-0.7l0.4-0.2l0.3-0.2l0.7-0.4c0.5-0.2,0.9-0.5,1.3-0.8c0.9-0.6,1.7-1.2,2.4-1.9
		l0.5-0.6c0.2-0.2,0.3-0.4,0.5-0.6c0.3-0.4,0.6-0.8,0.8-1.3c-0.1,0.5-0.3,1-0.6,1.5c-0.1,0.2-0.3,0.5-0.4,0.7l-0.5,0.7
		c-0.7,0.9-1.4,1.7-2.3,2.3l-0.6,0.5c-0.2,0.2-0.5,0.3-0.7,0.5l-0.7,0.4l-0.3,0.2l-0.4,0.2c-0.5,0.3-1,0.5-1.5,0.7l-1.5,0.6
		c-0.3,0.1-0.5,0.2-0.8,0.3l-0.8,0.2l-1.5,0.5l-0.7,0.2c1,0.1,2,0.3,2.9,0.6c0.4,0.1,0.8,0.3,1.2,0.4c0.4,0.2,0.8,0.3,1.2,0.5
		l1.1,0.6c0.2,0.1,0.4,0.2,0.5,0.4l0.5,0.4c0.7,0.5,1.3,1.1,1.8,1.8l0.1,0.1l0.1,0.1L134,41.7z M72.1,28.1l-2.2,2.2l-2.2-2.2
		l2.2-2.2L72.1,28.1z"/>
</g>
</svg>
